<mxfile host="app.diagrams.net" modified="2024-03-22T14:02:22.036Z" agent="Mozilla/5.0 (Windows NT 10.0; Win64; x64) AppleWebKit/537.36 (KHTML, like Gecko) Chrome/123.0.0.0 Safari/537.36" version="24.0.7" etag="S7pZ8B4cy6CD6AnR2_rx" type="github">
  <diagram name="Page-1" id="K8G4GZB5iy4wI6kGoQTd">
    <mxGraphModel>
      <root>
        <mxCell id="0" />
        <mxCell id="1" parent="0" />
      </root>
    </mxGraphModel>
  </diagram>
</mxfile>
